<svg xmlns="http://www.w3.org/2000/svg" viewBox="0 0 90.811 62.703"><path fill="#8CACDA" d="M81.405 23.49h-72V9.007a1.24 1.24 0 0 1 1.241-1.241h69.518a1.24 1.24 0 0 1 1.241 1.241V23.49zm-1.241 31.448H10.646a1.24 1.24 0 0 1-1.241-1.241V39.213h72v14.483c0 .686-.555 1.242-1.241 1.242z"/><path fill="#F5F5F5" d="M9.405 23.489h72v15.723h-72V23.489z"/><path fill="#F09147" d="M51.612 31.042h-4.47c.083-.063.149-.125.209-.185.109-.106.196-.191.426-.286.231-.097.353-.098.507-.101.185-.001.394-.005.735-.146.342-.142.49-.287.622-.416.109-.107.196-.192.427-.288a1.11 1.11 0 0 1 .503-.098 1.72 1.72 0 0 0 .735-.147l-.239-.572a1.11 1.11 0 0 1-.503.098 1.724 1.724 0 0 0-.734.146c-.341.142-.49.288-.622.416a1.127 1.127 0 0 1-.426.286c-.231.097-.353.098-.506.101a1.716 1.716 0 0 0-.736.146c-.341.141-.49.288-.622.416a1.164 1.164 0 0 1-.417.282l3.513-3.513-.438-.439-3.162 3.162c.014-.104.018-.196.019-.279.001-.154.003-.274.099-.506s.181-.317.287-.427c.13-.132.276-.282.418-.624.141-.342.144-.55.146-.734.002-.153.003-.274.098-.504.097-.23.181-.316.287-.426.129-.132.275-.281.417-.622l-.574-.238c-.096.23-.18.316-.286.426-.129.132-.275.281-.417.622a1.736 1.736 0 0 0-.146.735c-.002.153-.003.274-.098.504-.096.231-.181.317-.288.426-.13.132-.276.283-.417.625a1.74 1.74 0 0 0-.146.736c-.001.149-.005.27-.095.492v-4.967h-.621v4.47a2.096 2.096 0 0 0-.184-.208 1.152 1.152 0 0 1-.288-.426 1.128 1.128 0 0 1-.099-.507c-.002-.185-.004-.394-.146-.736-.142-.341-.288-.49-.417-.622a1.131 1.131 0 0 1-.287-.426c-.095-.23-.096-.352-.098-.504a1.692 1.692 0 0 0-.146-.733l-.573.238c.095.23.096.35.098.503.002.184.004.393.146.734.141.341.288.49.417.622.107.109.191.195.287.426.096.231.097.353.099.507.002.184.004.394.146.736.141.342.288.491.417.623.105.107.188.196.282.417l-3.513-3.513-.438.439 3.507 3.507a1.204 1.204 0 0 1-.386-.266 1.738 1.738 0 0 0-.625-.418 1.737 1.737 0 0 0-.736-.146 1.121 1.121 0 0 1-.509-.101 1.15 1.15 0 0 1-.432-.289c-.132-.128-.283-.275-.626-.418a1.736 1.736 0 0 0-.738-.147 1.14 1.14 0 0 1-.51-.102l-.238.575c.343.142.553.144.738.146.155.002.276.005.51.102.234.096.321.18.432.288.133.13.283.275.626.417.343.143.553.145.738.147.154.003.275.004.507.101.232.096.319.181.429.288.057.055.12.114.196.173h-4.482v.621h4.958a1.178 1.178 0 0 1-.459.086 1.706 1.706 0 0 0-.736.146 1.742 1.742 0 0 0-.625.417c-.11.108-.197.192-.429.288-.233.097-.355.1-.51.102a1.745 1.745 0 0 0-.738.146c-.344.143-.494.289-.627.418-.111.108-.198.193-.432.288l.238.575a1.76 1.76 0 0 0 .626-.419c.111-.107.198-.192.432-.288.233-.097.355-.099.51-.102.186-.002.395-.005.739-.148.342-.142.492-.288.625-.417.11-.107.197-.192.43-.288.231-.097.354-.098.507-.101.079 0 .167-.006.263-.018l-3.171 3.171.439.438 3.506-3.505a1.181 1.181 0 0 1-.264.385c-.129.132-.275.282-.417.624s-.145.553-.147.737c-.002.154-.003.275-.1.508-.096.234-.182.321-.289.432a1.735 1.735 0 0 0-.418.627c-.143.343-.145.553-.147.738a1.149 1.149 0 0 1-.101.509l.573.237c.143-.343.145-.553.147-.738.002-.153.004-.276.101-.509.096-.234.182-.321.289-.432.13-.132.276-.283.418-.627a1.73 1.73 0 0 0 .147-.736c.002-.154.003-.275.1-.509.096-.232.181-.318.288-.429.055-.057.114-.12.174-.196v4.482h.621v-4.957c.074.196.083.318.085.459.002.184.005.394.146.735.141.344.288.494.417.626.107.11.192.197.289.43.096.233.098.355.101.51.002.186.004.395.146.738.143.343.289.494.419.627.106.11.192.197.289.431l.573-.237a1.753 1.753 0 0 0-.419-.627c-.106-.11-.192-.197-.289-.431-.096-.233-.098-.355-.101-.51-.002-.186-.004-.395-.146-.738a1.746 1.746 0 0 0-.417-.625 1.16 1.16 0 0 1-.289-.431c-.096-.231-.097-.353-.1-.507 0-.078-.006-.167-.018-.263l3.171 3.171.438-.438-3.161-3.161c.103.014.194.018.277.019.153.001.274.002.506.098.231.097.318.18.428.288.132.129.282.275.624.417.341.141.55.143.734.144.152.002.273.003.504.1.23.095.316.18.426.286.132.128.281.275.622.417l.237-.574c-.23-.095-.316-.18-.425-.287-.133-.128-.282-.275-.623-.417-.341-.141-.55-.143-.734-.145-.153-.002-.273-.003-.504-.099a1.138 1.138 0 0 1-.428-.288c-.132-.128-.282-.275-.624-.416a1.694 1.694 0 0 0-.735-.147 1.152 1.152 0 0 1-.496-.096h4.972v-.613h-.005z"/><path fill="#FEE159" d="M45.405 28.248a3.104 3.104 0 1 1 0 6.209 3.104 3.104 0 0 1 0-6.209z"/></svg>