<svg xmlns="http://www.w3.org/2000/svg" viewBox="0 0 90.811 62.703"><path fill="#72AF43" d="M9.405 39.213h72v14.483a1.24 1.24 0 0 1-1.241 1.241H10.646a1.24 1.24 0 0 1-1.241-1.241V39.213z"/><path fill="#F04E58" d="M10.646 7.766h69.518a1.24 1.24 0 0 1 1.241 1.241V23.49h-72V9.007a1.24 1.24 0 0 1 1.241-1.241z"/><path fill="#FEE159" d="M9.405 23.489h72v15.723h-72V23.489z"/><path fill="#72AF43" d="M43.802 24.314l-.092.115c-.05.069-.125.176-.207.317-.161.281-.33.717-.335 1.236-.001.253.051.561.137.805.094.27.249.528.445.759.197.233.459.412.741.544.14.071.292.112.444.149.075.023.155.024.232.04.039.007.079.004.118.007l.06.003.03.001.015.001h.011c-.012 0 .032 0-.026.001.096-.006.213-.006.292-.016.069-.016.127-.014.207-.037.152-.037.305-.078.444-.148.281-.133.543-.312.741-.545.196-.23.352-.489.445-.759.09-.274.138-.538.137-.807a2.566 2.566 0 0 0-.334-1.235 3.314 3.314 0 0 0-.296-.429l-.007-.009a.157.157 0 0 1 .026-.221.158.158 0 0 1 .182-.008l.132.084c.081.061.207.147.343.287.272.27.626.75.754 1.448.063.334.069.738-.018 1.135a3.059 3.059 0 0 1-1.601 2.085 2.859 2.859 0 0 1-.685.254c-.114.034-.26.048-.389.068-.121.014-.208.014-.313.021h-.053l-.023-.001-.046-.002-.093-.005c-.061-.005-.123-.004-.184-.015-.121-.021-.245-.031-.363-.065a3.07 3.07 0 0 1-1.756-1.159 2.97 2.97 0 0 1-.532-1.18 2.878 2.878 0 0 1-.017-1.137 2.73 2.73 0 0 1 .753-1.447c.135-.139.262-.226.347-.29l.125-.079a.159.159 0 0 1 .218.05.157.157 0 0 1-.009.184z"/><path fill="#F04E58" d="M45.093 36.676v1.965a.22.22 0 0 1-.375.156l-.108-.108a.48.48 0 0 1-.141-.339v-1.674h.624z"/><path fill="#FEE159" d="M44.157 36.365v1.426c0 .086.034.168.095.229l.217.218v-1.872h-.312v-.001z"/><path fill="#72AF43" d="M43.846 36.365v.766c0 .109.043.214.12.291l.191.191v-1.248h-.311z"/><path fill="#F04E58" d="M45.717 36.676v1.965a.22.22 0 0 0 .375.156l.108-.108a.48.48 0 0 0 .141-.339v-1.674h-.624z"/><path fill="#FEE159" d="M46.653 36.365v1.426a.323.323 0 0 1-.095.229l-.217.218v-1.872h.312v-.001z"/><path fill="#72AF43" d="M46.965 36.365v.766a.412.412 0 0 1-.12.291l-.191.191v-1.248h.311z"/><path fill="#F04E58" d="M46.965 30.749l3.432-2.496v5.132a2.668 2.668 0 0 1-4.08 2.261l-1.847-1.154v-3.787l2.495.044z"/><path fill="#FEE159" d="M49.148 29.161v3.601a2.666 2.666 0 0 1-2.667 2.667c-.221 0-.439-.032-.652-.086l-1.36-.851v-3.787l2.496.043 2.183-1.587z"/><path fill="#72AF43" d="M48.213 29.842v2.324a2.667 2.667 0 0 1-2.667 2.667c-.222 0-.44-.032-.653-.086l-.424-.266v-3.776l2.496.043 1.248-.906z"/><path fill="#F5F5F5" d="M50.584 27.692l1.373-.687-.999 1.248h-.562l.188-.561z"/><path fill="#F04E58" d="M48.837 32.309l3.432-2.496v5.133a2.667 2.667 0 0 1-2.667 2.667c-.499 0-.989-.141-1.413-.405l-1.847-1.154v-3.788l2.495.043z"/><path fill="#72AF43" d="M50.085 31.401v2.325a2.667 2.667 0 0 1-2.667 2.667c-.222 0-.439-.032-.652-.086l-.424-.265v-3.777l2.496.043 1.247-.907z"/><path fill="#F5F5F5" d="M52.456 29.251l1.372-.686-.998 1.248h-.561l.187-.562z"/><path fill="#F04E58" d="M47.901 31.685l3.432-2.496v5.132a2.667 2.667 0 0 1-2.667 2.667c-.5 0-.99-.141-1.413-.405l-1.848-1.154v-3.788l2.496.044z"/><path fill="#FEE159" d="M50.085 30.097v3.601a2.667 2.667 0 0 1-2.667 2.667c-.222 0-.439-.032-.652-.086l-1.36-.85v-3.788l2.496.043 2.183-1.587z"/><path fill="#72AF43" d="M49.148 30.777v2.325a2.666 2.666 0 0 1-2.667 2.667c-.221 0-.439-.032-.652-.086l-.424-.265v-3.776l2.496.043 1.247-.908z"/><path fill="#F5F5F5" d="M51.52 28.628l1.373-.687-.998 1.248h-.562l.187-.561z"/><path fill="#F04E58" d="M43.846 30.749l-3.432-2.496v5.132a2.669 2.669 0 0 0 4.081 2.261l1.847-1.154v-3.787l-2.496.044z"/><path fill="#FEE159" d="M41.662 29.161v3.601a2.667 2.667 0 0 0 2.667 2.667c.222 0 .44-.032.653-.086l1.36-.851v-3.787l-2.496.043-2.184-1.587z"/><path fill="#72AF43" d="M42.598 29.842v2.324a2.667 2.667 0 0 0 2.667 2.667c.221 0 .439-.032.652-.086l.424-.266v-3.776l-2.496.043-1.247-.906z"/><path fill="#F5F5F5" d="M40.227 27.692l-1.373-.687.999 1.248h.561l-.187-.561z"/><path fill="#F04E58" d="M41.974 32.309l-3.432-2.496v5.133a2.667 2.667 0 0 0 2.667 2.667c.5 0 .989-.141 1.413-.405l1.847-1.154v-3.788l-2.495.043z"/><path fill="#72AF43" d="M40.726 31.401v2.325a2.667 2.667 0 0 0 2.667 2.667c.222 0 .439-.032.652-.086l.424-.265v-3.777l-2.496.043-1.247-.907z"/><path fill="#F5F5F5" d="M38.354 29.251l-1.372-.686.998 1.248h.562l-.188-.562z"/><path fill="#F04E58" d="M42.91 31.685l-3.432-2.496v5.132a2.667 2.667 0 0 0 2.667 2.667c.5 0 .99-.141 1.414-.405l1.847-1.154v-3.788l-2.496.044z"/><path fill="#FEE159" d="M40.726 30.097v3.601a2.667 2.667 0 0 0 2.667 2.667c.222 0 .439-.032.652-.086l1.36-.851v-3.787l-2.496.043-2.183-1.587z"/><path fill="#72AF43" d="M41.662 30.777v2.325a2.667 2.667 0 0 0 2.667 2.667c.222 0 .44-.032.653-.086l.424-.265v-3.776l-2.496.043-1.248-.908z"/><path fill="#FDBD5B" d="M41.32 36.324l-.412-.411a.624.624 0 0 1 .015-.897l6.808-6.398.883.882-6.398 6.809a.624.624 0 0 1-.896.015z"/><path fill="#FDBD5B" d="M41.115 35.806a.312.312 0 1 1 0 .624.312.312 0 0 1 0-.624z"/><path fill="#F5F5F5" d="M47.732 28.618c.122-.122.418-.023.662.221.243.244.342.54.22.662-.121.122-.418.023-.661-.221-.244-.244-.343-.54-.221-.662z"/><path fill="#FDBD5B" d="M49.491 36.324l.411-.411a.624.624 0 0 0-.016-.897l-6.808-6.398-.882.882 6.397 6.809a.626.626 0 0 0 .898.015z"/><path fill="#FDBD5B" d="M49.695 35.806a.312.312 0 1 1 .002.624.312.312 0 0 1-.002-.624z"/><path fill="#F5F5F5" d="M43.08 28.619c.122.122.023.418-.221.662s-.54.342-.662.221c-.122-.122-.023-.418.221-.662.244-.244.54-.343.662-.221z"/><path fill="#FDBD5B" d="M45.405 29.502c1.523 0 2.759 1.467 2.759 3.276 0 1.809-1.235 3.275-2.759 3.275s-2.758-1.467-2.758-3.275c0-1.809 1.235-3.276 2.758-3.276z"/><path fill="#F04E58" d="M45.405 29.813l.147.636.335-.559-.057.649.492-.428-.255.6.6-.255-.428.492.65-.057-.559.336.635.146-.635.147.559.335-.65-.057.428.492-.6-.255.255.6-.492-.428.057.649-.335-.559-.147.636-.146-.636-.336.559.057-.649-.492.428.255-.6-.599.255.427-.492-.649.057.559-.335-.635-.147.635-.146-.559-.336.649.057-.427-.492.599.255-.255-.6.492.428-.057-.649.336.559.146-.636z"/><path fill="#72AF43" d="M48.856 32.718s-1.033.273-1.706-.292c-.748-.628-1.308-.925-1.548-1.036a.304.304 0 0 0-.257 0 3.3 3.3 0 0 0-.769.491c-.41.361-1.667 1.073-1.921 1.073v1.551l1.979 1.715 2.34-.068 1.882-3.434z"/><path fill="#51C5F2" d="M45.405 29.657c-1.462 0-2.652 1.4-2.652 3.12 0 1.721 1.189 3.12 2.652 3.12 1.462 0 2.651-1.399 2.651-3.12.001-1.72-1.189-3.12-2.651-3.12zm0 7.176c-1.979 0-3.588-1.819-3.588-4.056 0-2.236 1.609-4.056 3.588-4.056s3.588 1.82 3.588 4.056c0 2.236-1.609 4.056-3.588 4.056z"/><path fill="#FDBD5B" d="M44.868 35.985l.069.206.217.002c.028 0 .04.036.017.053l-.175.129.065.207c.009.026-.022.049-.045.032l-.177-.126-.177.126c-.022.017-.053-.006-.045-.032l.065-.207-.174-.129c-.023-.017-.011-.053.017-.053l.217-.002.069-.206c.01-.027.048-.027.057 0zm-.975-.419l.069.206.217.001c.028.001.04.036.017.053l-.175.13.065.207c.009.026-.022.049-.045.032l-.177-.126-.177.126c-.023.017-.053-.006-.045-.032l.065-.207-.175-.13a.03.03 0 0 1 .017-.053l.217-.001.069-.206c.011-.027.049-.027.058 0zm-.784-.712l.069.206.217.002c.028 0 .04.036.017.053l-.175.129.065.207c.009.026-.022.049-.045.032l-.177-.126-.177.126c-.023.017-.053-.006-.045-.032l.065-.207-.174-.129c-.023-.018-.011-.053.017-.053l.217-.002.068-.206c.012-.026.05-.026.058 0zm-.534-.947l.069.206.217.001c.028.001.04.036.017.053l-.175.13.065.207c.009.026-.022.049-.045.032l-.177-.126-.177.126c-.022.017-.053-.006-.045-.032l.065-.207-.174-.13c-.023-.017-.011-.052.017-.053l.217-.001.069-.206c.011-.028.048-.028.057 0zm-.236-1.102l.069.206.217.001c.028 0 .04.036.017.053l-.174.129.065.208c.008.027-.022.049-.045.032l-.177-.126-.177.126c-.023.017-.054-.006-.045-.032l.066-.208-.175-.129c-.022-.017-.011-.053.017-.053l.217-.001.069-.206c.01-.027.048-.027.056 0zm3.602 3.18l-.069.206-.217.002c-.028 0-.04.036-.017.053l.175.129-.066.207c-.008.026.022.049.045.032l.177-.126.177.126c.022.017.053-.006.045-.032l-.065-.207.174-.129c.023-.017.011-.053-.017-.053l-.217-.002-.069-.206a.03.03 0 0 0-.056 0zm.976-.419l-.069.206-.217.001c-.028.001-.04.036-.018.053l.175.13-.065.207c-.009.026.021.049.045.032l.177-.126.177.126c.022.017.054-.006.045-.032l-.065-.207.175-.13a.03.03 0 0 0-.018-.053l-.217-.001-.069-.206c-.01-.027-.047-.027-.056 0zm.783-.712l-.069.206-.217.002c-.028 0-.04.036-.018.053l.175.129-.065.207c-.009.026.021.049.045.032l.177-.126.177.126c.022.017.054-.006.045-.032l-.065-.207.175-.129c.022-.018.011-.053-.018-.053l-.217-.002-.069-.206c-.01-.026-.047-.026-.056 0zm.533-.947l-.068.206-.217.001c-.028.001-.04.036-.018.053l.175.13-.065.207c-.009.026.021.049.045.032l.177-.126.177.126c.022.017.053-.006.045-.032l-.065-.207.175-.13a.03.03 0 0 0-.018-.053l-.217-.001-.069-.206c-.01-.028-.048-.028-.057 0zm.237-1.102l-.07.206-.217.001c-.028 0-.04.036-.018.053l.175.129-.065.208c-.009.027.022.049.045.032l.177-.126.177.126c.022.017.054-.006.045-.032l-.065-.208.175-.129c.022-.017.011-.053-.018-.053l-.217-.001-.068-.206a.03.03 0 0 0-.056 0z"/><path fill="#F5F5F5" d="M44.05 34.777l.104.496h.045v-.339s.074.236.178.339h.084a.485.485 0 0 1-.113-.271c0-.153.122-.174.122-.338h.104v.609h.062l.113-.543s.093.339.269.543h.078a.992.992 0 0 1-.152-.62s.167-.084.167-.311v-.322c0-.061.049-.109.109-.109h.075s-.112-.218-.231-.249v-.136l-.09.136c-.086.019-.137.099-.137.184v.196a.109.109 0 0 1-.109.109h-.391c-.116 0-.301.116-.301.265s.111.245.111.245l-.097.116z"/><path fill="#FDBD5B" d="M45.802 34.283h-.036c-.283.016-.441.202-.441.202l.287.288v.541h.344v-.541l.288-.288s-.159-.187-.442-.202z"/><path fill="#F5F5F5" d="M46.407 33.398h.103v1.917h-.103v-1.917z"/><path fill="#F5F5F5" d="M46.461 33.383l-.561.678s-.073-.327.253-.648l-.721.132s.219-.41.794-.366l-.59-.493s.507-.029.765.351c0 0 .146-.438.556-.458l-.338.513s.338-.172.806-.021l-.697.186s.39.039.551.609l-.604-.414s.186.22.117.648l-.331-.717zm-7.17-4.755l-1.373-.687.999 1.248h.561l-.187-.561z"/><path fill="#825647" d="M46.381 27.833l3.704-1.14-1.966-.737a3.134 3.134 0 0 0-1.096-.198h-.37a.312.312 0 0 0-.312.312v.312h-1.872v-.312a.312.312 0 0 0-.312-.312h-.37c-.374 0-.745.067-1.095.198l-1.966.737 3.704 1.14a.313.313 0 0 1 .188.438l-.459.918h2.496l-.459-.918a.31.31 0 0 1 .185-.438z"/><path fill="#F5F5F5" d="M45.405 26.069a.624.624 0 1 1 .001 1.247.624.624 0 0 1-.001-1.247z"/><path fill="#FDBD5B" d="M45.717 26.693c0 .172-.14.312-.312.312h-1.248l.533-.532a.312.312 0 0 1 .221-.092h.495c.172.001.311.14.311.312z"/></svg>