<svg xmlns="http://www.w3.org/2000/svg" viewBox="0 0 90.811 62.703"><path fill="#72AF43" d="M80.164 54.938H10.646a1.24 1.24 0 0 1-1.241-1.241V9.007a1.24 1.24 0 0 1 1.241-1.241h69.518a1.24 1.24 0 0 1 1.241 1.241v44.69a1.24 1.24 0 0 1-1.241 1.241z"/><path fill="#FEE159" d="M44.76 14.365L18.596 30.292a1.241 1.241 0 0 0 0 2.121L44.76 48.338c.396.241.895.241 1.291 0l26.164-15.926a1.241 1.241 0 0 0 0-2.121L46.051 14.365a1.243 1.243 0 0 0-1.291 0z"/><path fill="#41489B" d="M45.405 21.421c5.484 0 9.931 4.446 9.931 9.931 0 5.484-4.446 9.931-9.931 9.931s-9.931-4.446-9.931-9.931c0-5.485 4.447-9.931 9.931-9.931z"/><path fill="#F5F5F5" d="M36.884 26.271a9.84 9.84 0 0 0-1.07 2.542c5.505-.414 13.65 1.126 18.833 6.156a9.807 9.807 0 0 0 .646-2.746c-5.353-4.504-12.752-6.106-18.409-5.952zm8.932 8.47l.265.793.836.006c.107.001.152.14.065.204l-.672.496.252.797c.033.104-.085.188-.173.126l-.68-.486-.68.486c-.088.063-.205-.022-.173-.126l.252-.797-.672-.496c-.087-.064-.042-.203.066-.204l.836-.006.264-.793c.035-.103.18-.103.214 0zm3.248 2.051l.114.342.359.002c.047.001.066.061.028.088l-.289.214.108.343a.048.048 0 0 1-.074.054l-.293-.209-.292.209c-.038.027-.089-.01-.075-.054l.108-.343-.289-.214c-.037-.027-.019-.087.028-.088l.36-.002.113-.342c.017-.044.08-.044.094 0zm-4.652-3.558l.114.341.36.003c.046 0 .066.06.028.088l-.29.213.108.344a.048.048 0 0 1-.074.054l-.292-.209-.293.209a.048.048 0 0 1-.074-.054l.108-.344-.29-.213c-.037-.028-.018-.088.029-.088l.359-.003.114-.341c.016-.044.078-.044.093 0zm-6.301-.413l.114.341.36.003c.047 0 .066.06.028.087l-.289.214.108.343c.014.044-.037.081-.075.054l-.292-.209-.292.209c-.038.027-.089-.01-.075-.054l.108-.343-.289-.214a.048.048 0 0 1 .028-.087l.36-.003.114-.341a.049.049 0 0 1 .092 0zm5.271 3.853l.114.341.36.003c.046 0 .066.06.028.087l-.29.214.108.343a.049.049 0 0 1-.074.055l-.293-.21-.292.21a.049.049 0 0 1-.074-.055l.108-.343-.29-.214c-.037-.027-.018-.087.028-.087l.36-.003.114-.341c.016-.045.079-.045.093 0zm-2.9-4.091l.093.279.294.002c.038 0 .054.049.023.071l-.237.175.089.281c.012.036-.03.066-.061.044l-.239-.171-.239.171a.04.04 0 0 1-.061-.044l.089-.281-.237-.175c-.03-.022-.015-.071.023-.071l.294-.002.093-.279c.013-.037.064-.037.076 0zm8.835-5.76l.116.349.368.002c.048 0 .067.062.029.09l-.296.218.11.351c.015.045-.037.083-.076.055l-.299-.214-.3.214c-.039.028-.09-.01-.076-.055l.111-.351-.296-.218c-.038-.028-.019-.089.029-.09l.367-.002.116-.349c.018-.046.083-.046.097 0zm-10.8 4.053l.093.279.294.002c.038 0 .054.049.023.072l-.236.174.088.281c.012.036-.03.066-.061.044l-.239-.171-.24.171a.04.04 0 0 1-.061-.044l.089-.281-.237-.174a.04.04 0 0 1 .023-.072l.294-.002.093-.279a.04.04 0 0 1 .077 0zm1.42 3.932l.141.423.445.004c.058 0 .082.073.035.107l-.358.265.134.425a.06.06 0 0 1-.092.067l-.363-.259-.362.259a.06.06 0 0 1-.092-.067l.135-.425-.359-.265c-.046-.034-.022-.107.035-.107l.446-.004.141-.423c.018-.055.095-.055.114 0zm10.939 2.072l.089.266.28.002c.036.001.051.047.022.068l-.226.167.084.267c.012.035-.028.063-.058.042l-.229-.163-.228.163c-.029.021-.069-.007-.059-.042l.085-.267-.226-.167c-.029-.021-.014-.067.022-.068l.28-.002.088-.266c.015-.034.064-.034.076 0zm.98-2.029l.114.341.359.003c.047.001.066.06.028.088l-.289.214.108.343a.048.048 0 0 1-.074.054l-.293-.209-.293.209c-.037.027-.088-.01-.074-.054l.108-.343-.289-.214c-.037-.027-.019-.087.028-.088l.359-.003.114-.341c.017-.044.08-.044.094 0z"/></svg>