<svg id="Layer_1" xmlns="http://www.w3.org/2000/svg" viewBox="-260 365.3 90.8 62.7"><style>.st0{fill:#ff4b55}.st1{fill:#ffe15a}.st2{fill:#41479b}.st3{fill:#5a4646}.st4{fill:#e6e1cd}.st5{fill:#ffd0af}.st6{fill:#ffaf94}.st7{fill:#8cb400}.st8{fill:#69c3ff}.st9{fill:#009b64}.st10{fill:#f5f5f5}.st11{fill:#5aa0e6}.st12{fill:#ffc88c}.st13{fill:#e1e1e1}.st14{fill:#966446}.st15{fill:#be915a}.st16{fill:#b9b9b9}</style><path class="st0" d="M-178.6 408.4h-72V419c0 .7.6 1.2 1.2 1.2h69.5c.7 0 1.2-.6 1.2-1.2l.1-10.6z"/><path class="st1" d="M-178.6 396.6h-72v-22.3c0-.7.6-1.2 1.2-1.2h69.5c.7 0 1.2.6 1.2 1.2l.1 22.3z"/><path class="st2" d="M-250.6 396.6h72v11.8h-72z"/><path class="st1" d="M-215.9 397.3l9.1-7.8v11.2c0 1.9-1.5 3.4-3.4 3.4-.8 0-1.7-.3-2.3-.9l-3.3-3v-2.9h-.1z"/><path class="st0" d="M-211.1 401.8l-2.6-2.4v-3.9l4.8-4.1v9.4c0 .7-.6 1.3-1.3 1.3-.4 0-.7-.1-.9-.3z"/><path class="st2" d="M-212.4 394.4v4.4l2.2 1.9v-8.2l1.3-1.1v9.4c0 .7-.6 1.3-1.3 1.3-.3 0-.6-.1-.9-.3l-2.6-2.4v-3.9l1.3-1.1z"/><path class="st1" d="M-213.3 397.3l-9.1-7.8v11.2c0 1.9 1.5 3.4 3.4 3.4.8 0 1.7-.3 2.3-.9l3.3-3v-2.9z"/><path class="st0" d="M-218.1 401.8l2.6-2.4v-3.9l-4.8-4.1v9.4c0 .7.6 1.3 1.3 1.3.4 0 .7-.1.9-.3z"/><path class="st2" d="M-216.7 394.4v4.4l-2.2 1.9v-8.2l-1.3-1.1v9.4c0 .7.6 1.3 1.3 1.3.3 0 .6-.1.9-.3l2.6-2.4v-3.9l-1.3-1.1zm9.6-4.8h.6v3.7h-.6zm-15.6 0h.6v3.7h-.6z"/><path class="st3" d="M-215.9 387.8s.9-4.1-2.2-3.6c-3 .5-3 1.4-6.5 3.1 0 0 3.9.9 5.6.4 0 0 1.3 1.7 2.6 2.2h1.3l-.8-2.1zm2.6 0s-.9-4.1 2.2-3.6c3 .5 3 1.4 6.5 3.1 0 0-3.9.9-5.6.4 0 0-1.3 1.7-2.6 2.2h-1.3l.8-2.1z"/><path class="st3" d="M-213.3 390h-2.6v-2.2c0-.7.6-1.3 1.3-1.3.7 0 1.3.6 1.3 1.3v2.2z"/><circle class="st4" cx="-214.6" cy="387.8" r=".9"/><path class="st5" d="M-216.4 387.3l1.6.9c.1.1.3 0 .4-.1.1-.1.1-.4 0-.5l-1-1h-.3c-.4-.1-.7.3-.7.7z"/><path class="st6" d="M-215.9 387.4h-1.3l.6-.7c.1-.1.3-.2.4-.2h.7v.4c.1.3-.1.5-.4.5z"/><path class="st7" d="M-210.9 390c-.3-.3-.4-.8-.2-1.2.4-.1.9.1 1.1.4.2.3.3.7.3 1 .1.1.2.3.3.6v-.1c.1-.4.4-.6.7-.7.2.3.3.6.2 1-.1.3-.3.5-.6.6.1.2.2.5.3.8.1-.3.5-.6.8-.6.2.3.3.6.1 1-.1.3-.4.5-.7.6.2.6.2 1.2.2 1.9h-.4c0-.6-.1-1.1-.2-1.6-.3.1-.6.1-.8-.1-.3-.2-.5-.5-.5-.9.3-.2.7-.2 1 0-.1-.3-.2-.5-.3-.8-.3.1-.6.1-.8 0-.3-.2-.5-.5-.6-.8.3-.2.7-.2 1-.1l-.3-.6c-.1 0-.4-.2-.6-.4zm-7.4 0c.3-.3.4-.8.2-1.2-.4-.1-.9.1-1.1.4-.2.3-.3.7-.3 1-.1.1-.2.3-.3.6v-.1c-.1-.4-.4-.6-.7-.7-.2.3-.3.6-.2 1 .1.3.3.5.6.6-.1.2-.2.5-.3.8-.1-.3-.5-.6-.8-.6-.2.3-.3.6-.1 1 .1.3.4.5.7.6-.2.6-.2 1.2-.2 1.9h.4c0-.6.1-1.1.2-1.6.3.1.6.1.8-.1.3-.2.5-.5.5-.9-.3-.2-.7-.2-1 0 .1-.3.2-.5.3-.8.3.1.6.1.8 0 .3-.2.5-.5.6-.8-.3-.2-.7-.2-1-.1l.3-.6c.1 0 .4-.2.6-.4z"/><path class="st1" d="M-214.6 399.5l-9.1-7.8V403c0 1.9 1.5 3.4 3.4 3.4.8 0 1.7-.3 2.3-.9l3.3-3v-3z"/><path class="st0" d="M-219.4 403.9l2.6-2.4v-3.9l-4.8-4.1v9.4c0 .7.6 1.3 1.3 1.3.4 0 .7-.1.9-.3z"/><path class="st2" d="M-218 396.5v4.4l-2.2 1.9v-8.2l-1.3-1.1v9.4c0 .7.6 1.3 1.3 1.3.3 0 .6-.1.9-.3l2.6-2.4v-3.9l-1.3-1.1z"/><path class="st1" d="M-214.6 399.5l9.1-7.8V403c0 1.9-1.5 3.4-3.4 3.4-.8 0-1.7-.3-2.3-.9l-3.3-3v-3z"/><path class="st0" d="M-209.8 403.9l-2.6-2.4v-3.9l4.8-4.1v9.4c0 .7-.6 1.3-1.3 1.3-.4 0-.7-.1-.9-.3z"/><path class="st2" d="M-211.1 396.5v4.4l2.2 1.9v-8.2l1.3-1.1v9.4c0 .7-.6 1.3-1.3 1.3-.3 0-.6-.1-.9-.3l-2.6-2.4v-3.9l1.3-1.1z"/><ellipse class="st8" cx="-214.6" cy="396.5" rx="4.3" ry="6.5"/><path class="st9" d="M-218.5 398.2h7.8l.4-1.7-2 .3c-.4.1-.8 0-1.1-.3l-2.2-1.9c-.2-.2-.5-.3-.7-.3-.3 0-.6.1-.8.3l-1.4 1.4v2.2z"/><path class="st10" d="M-215 396.2l.7-.5-1.3-1.1c-.2-.2-.5-.3-.7-.3-.3 0-.6.1-.8.3l-1.4 1.4v.4l2.2-.4.4.2c.3.2.6.2.9 0z"/><path class="st11" d="M-218.5 398.2l.5 2.6 2.1 2.1h1.3l1.7-.4 1.8-1.7.4-2.6z"/><path class="st12" d="M-214.6 403.4c-2.6 0-4.8-3.1-4.8-6.9s2.1-6.9 4.8-6.9 4.8 3.1 4.8 6.9-2.2 6.9-4.8 6.9zm0-13c-2.1 0-3.9 2.7-3.9 6s1.7 6 3.9 6 3.9-2.7 3.9-6-1.7-6-3.9-6z"/><path class="st13" d="M-217.6 402.9c-.4-.5-.9-.8-1.5-.8s-1.1.3-1.5.8c.6.2 1.1.7 1.4 1.3.1.3.1.6.1.9 0-1.1.6-1.9 1.5-2.2z"/><path class="st13" d="M-218.8 404.3s0 .6-.3.8c-.3-.3-.3-.8-.3-.8h.6z"/><path class="st14" d="M-209.2 404.5H-220c-.1 0-.2-.1-.2-.2s.1-.2.2-.2h10.8c.1 0 .2.1.2.2s-.1.2-.2.2z"/><path class="st15" d="M-212.4 405.1h-4.3c-.5 0-.9-.4-.9-.9s.4-.9.9-.9h4.3c.5 0 .9.4.9.9-.1.5-.4.9-.9.9z"/><path class="st16" d="M-218.5 404h-1.5c-.1 0-.2.1-.2.2s.1.2.2.2h1.5v-.4z"/><path class="st0" d="M-214.6 405.1v4l-1.7-.5.9-3.5z"/><path class="st2" d="M-215 405.1l-.9 3-1.7-.4 1.3-2.6z"/><path class="st1" d="M-216.7 405.1l-1.3 1.7 1.3.5.8-2.2z"/><path class="st0" d="M-214.6 405.1v4l1.7-.5-.8-3.5z"/><path class="st2" d="M-214.1 405.1l.8 3 1.7-.4-1.3-2.6z"/><path class="st1" d="M-212.4 405.1l1.3 1.7-1.3.5-.9-2.2z"/><path class="st2" d="M-223.3 395.4l-.7-.6v-3.1h.7zm18.1-.6l-.6.6v-3.7h.6z"/></svg>