<svg xmlns="http://www.w3.org/2000/svg" viewBox="0 0 90.811 62.703"><path fill="#8CACDA" d="M33.405 54.937H10.646a1.24 1.24 0 0 1-1.241-1.241V9.006a1.24 1.24 0 0 1 1.241-1.241h22.759v47.172z"/><path fill="#F5F5F5" d="M33.406 7.765h24v47.173h-24V7.765z"/><path fill="#8CACDA" d="M80.164 54.937H57.405V7.765h22.759c.686 0 1.241.556 1.241 1.242v44.689a1.24 1.24 0 0 1-1.241 1.241z"/><path fill="#FFC856" d="M45.092 25.179l-.712.356.655.27.057-.626z"/><path fill="#72AF43" d="M45.405 38.333c-3.957 0-7.175-3.219-7.175-7.175a7.149 7.149 0 0 1 3.309-6.045l.185.288a6.81 6.81 0 0 0-3.152 5.758 6.841 6.841 0 0 0 6.833 6.833v.341z"/><path fill="#72AF43" d="M41.299 38.781c.273.056.695-.017 1.128-.218.434-.202.76-.479.893-.724-.273-.056-.695.017-1.128.218-.433.202-.76.479-.893.724zm2.021-.942c.056-.273-.017-.695-.218-1.128-.202-.434-.479-.76-.724-.894-.056.273.017.695.218 1.129.202.433.479.761.724.893zm-3.451.065c.262.095.69.086 1.148-.051.458-.136.821-.361.989-.584-.262-.096-.69-.086-1.148.05s-.821.361-.989.585zm2.138-.635c.096-.263.086-.69-.05-1.148-.136-.458-.362-.821-.585-.989-.095.262-.085.689.05 1.148.137.458.362.821.585.989zm-3.46-.561c.241.141.663.208 1.138.156.475-.051.874-.208 1.079-.397-.241-.141-.664-.208-1.139-.156-.475.05-.873.207-1.078.397zm2.217-.242c.141-.241.208-.663.157-1.139-.051-.475-.208-.873-.397-1.078-.141.241-.208.663-.157 1.139.051.476.208.873.397 1.078zm-3.31-1.411c.212.181.616.322 1.093.355.477.033.896-.05 1.131-.2-.212-.181-.616-.322-1.093-.355-.476-.033-.896.05-1.131.2zm2.225.155c.181-.212.322-.615.355-1.093.034-.477-.05-.896-.2-1.131-.182.212-.323.616-.356 1.092-.033.478.05.897.201 1.132zm-2.865-1.975c.169.222.534.445.993.578s.887.139 1.148.042c-.169-.222-.534-.445-.993-.578-.459-.132-.886-.139-1.148-.042zm2.142.62c.222-.169.445-.534.578-.993.133-.459.14-.887.042-1.148-.222.169-.445.534-.578.993-.133.459-.139.886-.042 1.148zm-2.413-2.745c.106.258.402.567.812.814.409.247.821.363 1.099.336-.106-.258-.402-.567-.811-.814-.41-.246-.822-.363-1.1-.336zm1.911 1.15c.258-.107.567-.402.814-.812s.363-.821.336-1.099c-.258.106-.567.402-.814.812s-.363.821-.336 1.099zM36.8 29.104c.05.274.274.639.623.966.349.327.727.527 1.004.56-.05-.274-.274-.639-.623-.966-.349-.328-.727-.528-1.004-.56zm1.627 1.525c.275-.05.639-.274.966-.623.327-.349.527-.727.559-1.004-.274.05-.639.274-.966.623-.327.349-.527.727-.559 1.004zm-.619-3.696c-.058.273.012.695.211 1.13s.474.763.718.897c.058-.273-.012-.695-.211-1.13s-.474-.763-.718-.897zm.929 2.027c.273.057.695-.012 1.13-.211.435-.199.762-.474.897-.718-.273-.057-.695.012-1.13.211-.434.199-.762.474-.897.718zm.276-3.635c-.128.248-.175.673-.1 1.145.075.472.251.862.45 1.058.128-.248.175-.673.1-1.145-.074-.473-.251-.862-.45-1.058z"/><path fill="#72AF43" d="M39.363 27.527c.248.128.673.175 1.145.1.472-.075.862-.251 1.058-.45-.248-.128-.673-.175-1.145-.1-.473.075-.862.251-1.058.45zm.832-3.321c-.164.226-.272.64-.268 1.118.005.478.122.889.29 1.112.164-.226.272-.64.268-1.118-.005-.478-.122-.889-.29-1.112zm.022 2.23c.226.164.64.272 1.118.268.478-.005.89-.122 1.112-.29-.226-.164-.639-.272-1.117-.268-.479.005-.891.122-1.113.29zm.574-.586c.278.022.688-.1 1.094-.352.406-.252.697-.566.8-.825-.278-.022-.688.1-1.094.352-.406.251-.697.565-.8.825zm4.614 12.483v-.342a6.841 6.841 0 0 0 6.834-6.833 6.813 6.813 0 0 0-3.152-5.758l.185-.288a7.15 7.15 0 0 1 3.309 6.045c-.001 3.958-3.22 7.176-7.176 7.176z"/><path fill="#72AF43" d="M49.512 38.781c-.273.056-.695-.017-1.128-.218-.434-.202-.76-.479-.893-.724.272-.056.694.017 1.128.218.433.202.76.479.893.724zm-2.022-.942c-.056-.273.017-.695.219-1.128.201-.434.479-.76.723-.894.056.273-.016.695-.218 1.129-.201.433-.479.761-.724.893zm3.451.065c-.263.095-.69.086-1.148-.051-.458-.136-.821-.361-.989-.584.263-.096.69-.086 1.148.05s.821.361.989.585zm-2.137-.635c-.096-.263-.086-.69.05-1.148s.361-.821.585-.989c.095.262.086.689-.051 1.148-.136.458-.362.821-.584.989zm3.46-.561c-.241.141-.664.208-1.139.156-.476-.051-.873-.208-1.078-.397.24-.141.663-.208 1.139-.156.474.05.873.207 1.078.397zm-2.217-.242c-.141-.241-.209-.663-.157-1.139.052-.475.208-.873.397-1.078.141.241.208.663.157 1.139-.051.476-.209.873-.397 1.078zm3.309-1.411c-.212.181-.616.322-1.093.355s-.896-.05-1.132-.2c.213-.181.616-.322 1.093-.355s.897.05 1.132.2z"/><path fill="#72AF43" d="M51.132 35.21c-.181-.212-.322-.615-.355-1.093-.033-.477.05-.896.2-1.131.181.212.322.616.355 1.092.033.478-.05.897-.2 1.132zm2.864-1.975c-.169.222-.534.445-.993.578s-.887.139-1.148.042c.169-.222.534-.445.993-.578s.886-.139 1.148-.042zm-2.142.62c-.222-.169-.444-.534-.578-.993-.133-.459-.139-.887-.042-1.148.222.169.445.534.578.993.133.459.139.886.042 1.148zm2.414-2.745c-.107.258-.402.567-.812.814-.41.247-.821.363-1.1.336.107-.258.402-.567.812-.814s.821-.363 1.1-.336zm-1.912 1.15c-.258-.107-.567-.402-.813-.812-.247-.41-.363-.821-.336-1.099.258.106.567.402.813.812.248.41.364.821.336 1.099zm1.655-3.156c-.05.274-.274.639-.623.966-.349.327-.727.527-1.004.56.05-.274.274-.639.623-.966.348-.328.726-.528 1.004-.56zm-1.627 1.525c-.274-.05-.639-.274-.966-.623s-.527-.727-.56-1.004c.274.05.639.274.966.623s.528.727.56 1.004zm.619-3.696c.057.273-.013.695-.212 1.13-.198.435-.474.763-.718.897-.057-.273.013-.695.211-1.13.199-.434.475-.763.719-.897z"/><path fill="#72AF43" d="M52.073 28.96c-.272.057-.694-.012-1.129-.211-.435-.199-.763-.474-.897-.718.272-.057.695.012 1.13.211.433.199.762.474.896.718zm-.276-3.635c.129.248.176.673.101 1.145-.075.472-.251.862-.45 1.058-.129-.248-.175-.673-.101-1.145.075-.472.252-.862.45-1.058zm-.35 2.202c-.247.128-.673.175-1.145.1-.473-.075-.862-.251-1.058-.45.248-.128.673-.175 1.145-.1.473.075.863.251 1.058.45zm-.832-3.321c.164.226.272.64.268 1.118-.004.478-.121.889-.289 1.112-.164-.226-.272-.64-.268-1.118.004-.478.121-.889.289-1.112zm-.021 2.23c-.226.164-.64.272-1.117.268-.479-.005-.89-.122-1.112-.29.226-.164.64-.272 1.117-.268.478.005.889.122 1.112.29zm-.573-.586c-.278.022-.688-.1-1.095-.352-.405-.252-.696-.566-.8-.825.278-.022.688.1 1.095.352.405.251.696.565.8.825z"/><path fill="#966447" d="M41.488 36.744l-1.244 1.244-.613-1.227 1.84-1.84.613.613-.177.531a1.723 1.723 0 0 1-.419.679z"/><path fill="#B9B9B9" d="M48.218 27.562l-6.747 6.746a.434.434 0 0 0 0 .613l.307.307 1.227-1.227 4.907-5.52.613-.613-.307-.306z"/><path fill="#966447" d="M43.131 33.261a.434.434 0 0 0-.127.307v.434l4.906-5.52-4.779 4.779z"/><path fill="#A09F9F" d="M48.523 27.869l-.305-.307-.307.307.307.306.305.307 3.374-3.986-3.374 3.373z"/><path fill="#966447" d="M49.664 36.744l1.243 1.244.613-1.227-1.84-1.84-.613.613.178.531c.085.257.229.488.419.679z"/><path fill="#B9B9B9" d="M42.935 27.562l6.746 6.746c.17.169.17.443 0 .613l-.307.307-1.227-1.227-4.906-5.52-.613-.613.307-.306z"/><path fill="#966447" d="M48.021 33.261a.43.43 0 0 1 .128.307v.434l-4.907-5.52 4.779 4.779z"/><path fill="#A09F9F" d="M42.628 27.869l.307-.307.307.307-.307.306-.307.307-3.373-3.986 3.373 3.373z"/><path fill="#B9B9B9" d="M43.059 36.489l.305.278c1.112-1.219 3.057-3.353 6.141-6.122.001.001-2.555 1.578-6.446 5.844z"/><path fill="#FEE159" d="M42.197 37.74a.27.27 0 0 1-.018-.379l.653-.716a.27.27 0 0 1 .379-.018c.109.101.117.27.017.379l-.653.716a.266.266 0 0 1-.378.018z"/><path fill="#FFC856" d="M42.812 36.263l-.177.079c-.157.078-.571.313-.643.646-.034.158.014.312.137.457a.263.263 0 0 1 .051-.084l.082-.09c-.056-.081-.085-.16-.068-.24.045-.209.323-.395.498-.487l.783.714.194-.214-.857-.781z"/><path fill="#B9B9B9" d="M48.09 36.827l-.305.277a81.05 81.05 0 0 0-6.141-6.121s2.555 1.577 6.446 5.844z"/><path fill="#FEE159" d="M48.952 38.078a.27.27 0 0 0 .018-.379l-.653-.716a.27.27 0 0 0-.379-.018.269.269 0 0 0-.017.379l.652.716a.27.27 0 0 0 .379.018z"/><path fill="#FFC856" d="M48.338 36.601l.177.078c.157.079.571.313.643.646.034.158-.014.313-.137.458a.257.257 0 0 0-.051-.085l-.082-.09c.056-.081.085-.16.068-.239-.045-.209-.323-.396-.498-.487l-.783.713-.194-.213.857-.781z"/><path fill="#68B468" d="M45.709 25.541a.513.513 0 1 0-.78.22c-.185 1.488 1.283 1.602 1.841 1.81.849.316 1.913.955 1.847 2.74-.065 1.735-1.163 3.411-1.163 3.411l.911-1.239c-.333 1.409-1.111 3.204-2.961 5.339 0 0 1.265-1.237 2.32-2.833-.776 1.827-1.637 3.517-1.637 3.517s1.524-1.979 2.755-5.403c1.494-4.152-1.646-6.646-3.133-7.562z"/><path fill="#F4E08E" d="M43.015 31.67h1.366v.684h-1.366v-.684z"/><path fill="#ECD077" d="M43.015 31.67a.684.684 0 1 1 0 1.369.684.684 0 0 1 0-1.369zm0-4.441a.684.684 0 1 1 0 1.369.684.684 0 0 1 0-1.369z"/><path fill="#FCF0A8" d="M47.113 28.596a.684.684 0 1 0 0-1.368h-4.1a.683.683 0 1 1-.684.684c0 1.147.96 2.534 1.27 3.758 0 0 .097.306.097.684s-.306.684-.683.684h4.1a.684.684 0 0 0 .684-.684c0-1.147-.96-2.534-1.27-3.758h.586z"/><path fill="#F4E08E" d="M43.697 27.913a.683.683 0 0 1-.683.683h4.1a.683.683 0 0 0 .684-.683h-4.101zm0 4.441a.684.684 0 0 1-.683.684h4.1a.684.684 0 0 0 .684-.684h-4.101z"/></svg>