<svg xmlns="http://www.w3.org/2000/svg" viewBox="0 0 90.811 62.703"><path fill="#72AF43" d="M33.405 54.937H10.646a1.24 1.24 0 0 1-1.241-1.241V9.006a1.24 1.24 0 0 1 1.241-1.241h22.759v47.172z"/><path fill="#F5F5F5" d="M33.406 7.765h24v47.173h-24V7.765z"/><path fill="#F04E58" d="M80.164 54.937H57.405V7.765h22.759c.686 0 1.241.556 1.241 1.242v44.689a1.24 1.24 0 0 1-1.241 1.241z"/><path fill="#FFD250" d="M47.546 32.461l-2.141 1.071v1.07h1.071l1.07-2.141z"/><path fill="#2FBA9C" d="M45.405 37.279a.534.534 0 0 1-.535-.535v-2.142a.534.534 0 1 1 1.07 0v2.142a.534.534 0 0 1-.535.535z"/><path fill="#2FBA9C" d="M45.405 35.138c-2.103 0-4.133-.812-5.717-2.285a.535.535 0 1 1 .728-.784c1.385 1.289 3.157 1.998 4.988 1.998s3.603-.709 4.988-1.998a.535.535 0 0 1 .729.784c-1.583 1.474-3.613 2.285-5.716 2.285z"/><path fill="#00AADC" d="M45.405 37.279a6.927 6.927 0 0 1-3.844-1.16l.593-.892c1.932 1.284 4.571 1.284 6.502 0l.593.892a6.935 6.935 0 0 1-3.844 1.16z"/><path fill="#732D37" d="M44.558 30.053l-1.182 1.828-.201.603 3.078-.714-1.695-1.717z"/><path fill="#AAD264" d="M42.129 33.072c-1.415 0-3.114-1.191-3.564-3.844l1.056-.179c.375 2.206 1.732 2.954 2.547 2.952.25-.007.511-.093.531-.27.024-.211.03-.261-.53-.45-.304-.103-.649-.22-.891-.497-.979-1.118.347-2.302.983-2.87.112-.101.159-.186.147-.218-.035-.091-.245-.23-.482-.23-.68 0-1.196-.384-1.346-1.002-.156-.64.139-1.314.699-1.604l.491.951c-.131.068-.183.261-.15.399.013.056.045.185.306.185.655 0 1.279.387 1.481.919.087.227.218.816-.434 1.398-.703.627-1.124 1.1-.891 1.366.053.06.279.137.429.187.482.163 1.379.466 1.25 1.588-.081.705-.709 1.194-1.565 1.217a1.413 1.413 0 0 1-.067.002z"/><path fill="#884150" d="M46.476 27.109s1.071-2.141-1.071-3.212c0 0 7.494-1.07 6.423 8.564-.703-.562-1.746-1.589-2.118-2.408l-3.234-1.874v-1.07z"/><path fill="#732D37" d="M45.405 29.25l5.353 3.212-2.141 1.07-3.212-3.211V29.25z"/><path fill="#783C46" d="M43.264 26.038c.591 0 1.071.479 1.071 1.071l-.001.001a2.097 2.097 0 0 0-.393 2.422l.242.484c.101.201.233.386.393.545l2.971 2.971v-1.479c0-1.843-.43-3.661-1.254-5.31a3.211 3.211 0 0 0-2.872-1.775h-.156l-.001 1.07z"/><path fill="#FFD250" d="M43.264 24.968l-1.07 1.07v1.071s1.273-.646 1.703-.852c.3-.144.245-.483.073-.647a76.653 76.653 0 0 0-.706-.642z"/><path fill="#AAD264" d="M45.405 39.419c-5.018 0-9.1-4.081-9.1-9.099h1.071c0 4.427 3.602 8.029 8.029 8.029 4.428 0 8.029-3.602 8.029-8.029h1.07c.001 5.018-4.081 9.099-9.099 9.099z"/><path fill="#FEE159" d="M37.435 32.771a.727.727 0 1 1 0 1.454.727.727 0 0 1 0-1.454zm1.606 2.564a.727.727 0 1 1 0 1.454.727.727 0 0 1 0-1.454zm2.608 1.94a.726.726 0 1 1 0 1.452.726.726 0 0 1 0-1.452zm11.804-4.504a.727.727 0 1 1 0 1.454.727.727 0 0 1 0-1.454zm-1.607 2.564a.727.727 0 1 1 0 1.454.727.727 0 0 1 0-1.454zm-2.609 1.94a.727.727 0 1 1 0 1.454.727.727 0 0 1 0-1.454z"/><path fill="#FBB378" d="M45.94 37.814h-1.07a1.07 1.07 0 1 1 0-2.14h1.07a1.07 1.07 0 1 1 0 2.14z"/><path fill="#9C4C5B" d="M49.71 30.053c.356 1.048 1.115 2.007 2.118 2.408 1.071-9.635-6.423-8.564-6.423-8.564 5.353 0 4.305 6.156 4.305 6.156z"/></svg>